<svg version="1.0" xmlns="http://www.w3.org/2000/svg" width="1365.333" height="1365.333" viewBox="0 0 1024 1024"><path d="M334.8 70.6c-.5.4-.8 7.4-.8 15.5 0 16.8-.6 15.9 9.6 15.9 7.3 0 12.7-1.8 14.3-4.8 1.8-3.5 1.3-7.9-1.1-9.6-1.7-1.2-2-1.8-1-2.8 2.1-2.1 1.4-8.4-1.2-11.5-2.2-2.6-3.1-2.8-10.8-3.1-4.5-.2-8.6 0-9 .4zm15 9.6c.3 2.7.2 2.8-4.7 2.8-5 0-5.1-.1-5.1-3.1s.1-3 4.8-2.7c4.3.3 4.7.5 5 3zm.6 9.4c.9.3 1.6 1.6 1.6 2.9 0 2.7-1.7 3.5-7.6 3.5-4.4 0-4.4 0-4.4-3.5s0-3.5 4.4-3.5c2.4 0 5.1.3 6 .6zM445.4 71.3c-.2.7-.3 7.8-.2 15.7l.3 14.5h2.5c2.2 0 2.5-.5 2.8-4.3.3-3.7.6-4.2 2.7-4.2 1.7 0 3 1.1 4.6 3.9 2.3 4.2 6.1 6 8.5 4.1 1.1-1 .9-1.8-1.3-5-2.4-3.7-2.4-4-.8-5.6 5.7-5.7 4-16-3-19-4.4-1.8-15.4-1.9-16.1-.1zm14.4 6.9c.7.7 1.2 2.1 1.2 3.3 0 3.1-1.9 4.5-6.2 4.5H451v-9h3.8c2.1 0 4.3.5 5 1.2zM610.5 71.3c-.3.7-.4 7.8-.3 15.7l.3 14.5h20V99c0-2.4-.3-2.5-7.2-2.8-7.3-.3-7.3-.3-7.3-3.1 0-2.7.3-2.9 5.6-3.6 5.3-.6 5.5-.8 5.2-3.3-.3-2.5-.7-2.7-5.5-3-5.1-.3-5.3-.4-5.3-3.2v-2.9l7.3-.3 7.2-.3v-6l-9.8-.3c-7.4-.2-9.9 0-10.2 1.1zM288 75.9c0 2.6-.4 3-3.2 3.3-2.7.2-3.5.9-4.3 3.5-.7 2.7-1.4 3.3-3.8 3.3-1.8 0-2.7.4-2.4 1.2.2.7 1.5 1.2 3 1 2.3-.3 2.6.1 2.9 3 .3 3 .6 3.3 4.1 3.6 3 .3 3.7.7 3.8 2.5v2.2l.9-2.3c.7-1.6 1.8-2.2 3.9-2.2 4.4 0 4.7-1.8.4-2.2l-3.8-.3-.2-5.8-.2-5.7h3.4c1.9 0 3.5-.5 3.5-1 0-.6-1.3-1-3-1-2.5 0-3-.4-3-2.4 0-1.4-.4-2.8-1-3.1-.6-.4-1 .6-1 2.4zm-.3 10.8c-.2 5.5-.3 5.8-2.9 6.1-2.4.3-2.8 0-2.8-2.2 0-1.3.6-2.7 1.3-3 1-.5 1-.7 0-1.2-.7-.3-1.3-1.7-1.3-3 0-2 .5-2.4 3-2.4h2.9l-.2 5.7zM391.9 75.4c-1.4.9-3.2 2.9-3.9 4.7-1.9 4.6.2 8 6 9.8 6.2 1.9 7.5 2.6 7.5 4.2 0 2.5-6.4 2.3-9.2-.3l-2.5-2.3-1.9 2.4c-1.5 1.9-1.7 2.7-.7 3.8 3.4 4.2 11.5 5.5 16.7 2.8 3.3-1.6 4.1-3.3 4.1-8.1 0-3.9-2-5.6-8.7-7.3-4.7-1.3-6.3-2.9-4.2-4.2 2.2-1.4 5.1-1 7.2.8 1.8 1.7 2 1.7 3.8-.6 2-2.4 2-2.5 0-4.4-2.5-2.6-10.6-3.3-14.2-1.3zM410.1 75.7c-2.8 2-.1 4.9 4.3 4.5l3.6-.3v9.9c0 10.4 1 12.9 4.4 11.6 1.3-.5 1.6-2.3 1.6-10.4 0-10.5.3-11 5.6-11 1.9 0 2.4-.5 2.4-2.5 0-1.4-.3-2.5-.7-2.5-13.2-.5-19.9-.3-21.2.7zM502.4 74.7c-3.4.7-6.7 4.9-6.7 8.4 0 3.9 2.8 6.5 8.2 7.4 4.2.7 6.7 2.7 5.6 4.5-.9 1.5-5.2 1.2-8.7-.6-3-1.5-3.2-1.5-4.5.2-1.9 2.6-1.7 3.2 2 5.4 7.3 4.5 17.7.8 17.7-6.4 0-4-2.2-6.1-8.6-8.4-2.6-1-4.9-2.3-5.1-2.9-.6-1.8 3.8-2.6 7.1-1.4 1.5.6 3.4 1.1 4.2 1.1 2 0 1.8-4.7-.4-5.9-2.3-1.2-8.1-2-10.8-1.4zM521.3 74.7c-1.6.6-1.8 16.9-.3 20.7 1.3 3.5 6.7 6.6 11.4 6.6 3 0 4.5-.7 7.2-3.4l3.4-3.4V85.1c0-8.2-.3-10.3-1.5-10.7-3.3-1.3-4.5 1.5-4.5 10.2 0 6.2-.4 8.7-1.6 9.8-2 2-4.3 2-7.2 0-2-1.4-2.2-2.4-2.2-9.8 0-9.3-1-11.4-4.7-9.9zM548.7 74.7c-.4.3-.7 6.7-.7 14v13.4l2.8-.3c2.5-.3 2.7-.6 3.2-6.2.5-6.4 1.1-6.4 4.4.1 2 4 3.3 4.2 4.8.5.7-1.5 1.9-3.8 2.8-5.2 1.5-2.4 1.5-2.3 2 4 .5 6.1.6 6.5 3 6.5h2.5v-13c0-15.9-.9-16.8-7.6-7.6-2.4 3.3-4.6 6-4.9 6.1-.3 0-2.7-3-5.3-6.5-4.7-6.4-5.7-7.2-7-5.8zM586.8 74.7l-7.8.4V88c0 15-.6 14.3 11.5 13.8 6.7-.3 7-.4 7-2.8s-.3-2.5-6.2-2.8c-5.9-.3-6.3-.5-6.3-2.7 0-2.1.5-2.4 4.8-2.7 4.3-.3 4.7-.5 5-3.1.3-2.6.2-2.7-4.7-2.7-4.4 0-5.1-.3-5.1-2 0-1.8.7-2 5.4-2 3.5 0 5.8-.5 6.6-1.5 1.4-1.6.4-5.6-1.3-5.3-.7.1-4.7.4-8.9.5zM632.9 75.6c-1 1.2-.8 2.5.9 6.2 1.2 2.6 3.4 7.8 4.9 11.6 4.9 12.2 7.7 11.3 13.3-4.1 4.2-11.8 4.6-14.1 2.6-14.9-2.6-1-4.3 1.3-7.1 9.7-1.5 4.3-3 7.7-3.5 7.4-.4-.3-2-4-3.5-8.4-2.9-8.2-5.2-10.4-7.6-7.5zM743 76.5c0 2-.5 2.5-2.5 2.5-1.4 0-2.5.4-2.5 1 0 .5 1.1 1 2.5 1 2.4 0 2.5.3 2.5 6v6h-3.1c-1.7 0-2.8.4-2.4 1 .3.5 1.7 1 2.9 1 1.6 0 2.6.8 3.1 2.2l.8 2.3.4-2.3c.3-1.6 1.1-2.2 3.1-2.2 4 0 5.5-1.4 5-4.4-.5-2.3-.2-2.6 2.3-2.6 3.7 0 3.8-1.8.2-2.2-2-.2-2.8-.9-2.9-2.3-.1-1.1-.2-2.6-.3-3.3-.1-.6-1.4-1.2-3.1-1.2-2.5 0-3-.4-3-2.5 0-1.6-.6-2.5-1.5-2.5s-1.5.9-1.5 2.5zm7.8 10.5c0 5.7-.1 6-2.4 6s-2.4-.3-2.4-6 .1-6 2.4-6 2.4.3 2.4 6zM364 88c0 15.1-.7 14.3 12 13.8 7.4-.3 7.5-.4 7.8-3.1l.3-2.7h-14.2l.3-2.8c.3-2.5.7-2.7 5.6-3 4.7-.3 5.2-.5 5.2-2.7s-.5-2.4-5.2-2.7c-3.9-.2-5.3-.7-5.3-1.8 0-1 1.2-1.6 4-1.8 7.2-.4 8.5-1 8.5-3.7 0-2.5-.1-2.5-9.5-2.5H364v13zM473 88c0 15-.6 14.3 11.5 13.8 6.8-.3 7-.4 7.3-3.1l.3-2.7h-6.5c-6.3 0-6.6-.1-6.6-2.4s.4-2.5 5.3-2.8c4.8-.3 5.2-.5 5.5-3.1.3-2.7.2-2.7-5.2-2.7-5.3 0-5.6-.1-5.6-2.5s.2-2.5 6.5-2.5 6.5-.1 6.5-2.5c0-2.5 0-2.5-9.5-2.5H473v13zM660 80.2c-.1 2.9-.3 7.9-.7 11-.3 3.2-.2 6.9.1 8.3.7 2.6.7 2.6 9.9 2.3 9.1-.3 9.2-.3 9.2-2.8 0-2.4-.3-2.5-6.2-2.8-5.5-.3-6.3-.6-6.3-2.2v-2.8c0-.4 2.1-.9 4.7-1.2 4-.4 4.8-.8 4.8-2.5s-.8-2-4.8-2.3c-4.3-.3-4.8-.5-4.5-2.5.3-1.9 1-2.2 6-2.5 3.9-.2 5.8-.8 6.2-1.8 1.1-2.9-.4-3.4-9.5-3.4H660v5.2zM682.7 87.2c-.4 9.6-.3 12.6.8 13.7 2.2 2.2 4.5.6 4.5-3.3 0-3 .3-3.4 3-3.8 2.2-.3 3.1 0 3.5 1.3 1 3.1 4.6 6.9 6.6 6.9 3 0 3.3-2.3.8-6.4l-2.2-3.7 2.2-2.3c3.1-3.3 2.8-8.1-.8-11.7-2.7-2.7-3.5-2.9-10.4-2.9h-7.4l-.6 12.2zm13.9-5.8c3 2.3.7 5-4.5 5.4-3.9.3-4.1.2-4.1-2.6 0-1.6.3-3.2.7-3.5 1.1-1.2 5.9-.7 7.9.7zM252.3 125.3c-11.6 2.4-18.1 16.6-12.5 27.4 2.6 4.9 6.1 7.7 12.2 9.3 6.9 1.9 521.4.3 525.1-1.6 5.4-2.7 10.9-11.6 10.9-17.3-.1-6.3-7.5-16.2-13.4-17.7-3.5-.8-518-1-522.3-.1zm523 7c5.9 3.8 8.6 12.7 5.3 17.2-1.3 1.8-1.4 1.8-.9-.7.7-3.8-1.4-9.4-4.4-11.8-2.5-2-3.8-2-126.1-2H525.7l2.1 2.2c4.5 4.9 3.6 12.6-1.9 17.3l-3.1 2.5H252.3l-3.4-2.3c-8.6-5.8-6.8-19.6 3.1-23 2.8-.9 62.2-1.2 262.1-1.2 247.5 0 258.6.1 261.2 1.8z"/><path d="M252.3 136.2c-1.1.5-2.9 2.5-3.8 4.2-1.5 2.8-1.6 3.8-.5 7 .8 2.4 2.1 4.1 3.7 4.7 1.3.5 8.4.8 15.6.7 7.3-.1 11.5-.3 9.5-.5-3.6-.4-3.8-.6-4-4.4-.1-2.1-.2-5.3-.3-6.9-.1-1.7.2-3.3.7-3.6.4-.3.8-.9.8-1.5 0-1.2-18.9-1-21.7.3zM307 136c-1.3.8-1.2 1 .3 1s1.7 1.1 1.7 8v8h212.2l2.9-2.9c4.6-4.6 3.7-10.6-2.1-13.6-2.5-1.3-16.2-1.5-108.2-1.5-66.3 0-105.9.4-106.8 1zM804.2 141.2c.4 1 6.9 1.4 28.2 1.6 22.1.2 27.7 0 27.4-1-.4-1-6.9-1.4-28.2-1.6-22.1-.2-27.7 0-27.4 1zM866.8 169.1c-2.1 1.7-3.8 3.5-3.8 4 0 .9 8 6.3 8.5 5.7.2-.2.9-1.9 1.7-3.8 1.3-3 1.2-3.8-.1-6.2-.9-1.5-1.8-2.8-2.1-2.8-.3.1-2.2 1.4-4.2 3.1zM380.4 182.7c-1 1.6-2.8 3.6-4.1 4.6-1.3 1-2.3 2.2-2.3 2.7 0 1.1 8 9 9.1 9 1.2 0 8.9-7.8 8.9-9 0-.9-8.4-10-9.3-10-.3 0-1.3 1.2-2.3 2.7zM633.6 185c-2 2.2-3.6 4.3-3.6 4.8 0 1.2 7.1 8.2 8.4 8.2 1.2 0 8.6-7.1 8.6-8.3 0-1.3-7.2-8.7-8.5-8.7-.7 0-2.9 1.8-4.9 4z"/><path d="M133.5 195.2c-.3.7-.6 41.8-.8 91.3l-.2 90-13.2.3c-8.8.2-13.4.7-14.1 1.5-.6.7-5.8 16.5-11.7 35.2-18.8 59.7-23.3 73.9-24.9 78.4-2.8 7.6-1.7 9.5 5.4 8.9 1.4-.1 8.7-.1 16.2 0l13.7.2.3 59.2.3 59.3 2.7 4.6c3.5 5.9 9.5 11.3 14.4 12.9 2.2.7 4.2 1.6 4.7 1.9.8.8-5.2 13.7-8.5 18.2l-2.2 2.9H89c-19.4 0-26.9.3-27.8 1.2-.7.7-1.2 4-1.2 8 0 6.4.1 6.8 2.6 7.4 1.4.4 4.5.4 7 .1l4.4-.5v88.9c0 50.3-.4 88.9-.9 88.9s-1.4-.7-2.2-1.6c-1.6-2-6.3-4.4-8.5-4.4-1.3 0-1.5.6-.9 3.7.9 4.9 5.2 13.2 7.2 14 1.5.6 3.7-1.4 4.6-4.1.2-.8 9.7-1.3 30.3-1.6l29.9-.5v-5l-19.2-.3L95 854v-9h79v9h-16.5c-14.6 0-16.5.2-17.3 1.7-2.3 4.4-5.9 4.3 113.9 4.3 109 0 113.9-.1 113.9-1.8 0-4.2-.6-4.2-47.1-4.2h-44.7l-.7-15.3c-.4-8.3-.5-17.2-.3-19.7l.3-4.5h248l-.3 7.5c-.3 6.4-.1 7.9 1.7 10.1 2 2.6 2 2.7.2 12l-1.8 9.4-70.1.5c-72.3.5-73.3.6-71.9 4.4.6 1.4 8 1.6 70.2 1.6 59.7 0 69.5.2 69.5 1.4 0 .8-.7 4.6-1.5 8.4-.8 3.8-1.7 11-2.1 16l-.7 9.2H505c-9.4 0-12 .3-13 1.6-1.1 1.2-1 1.8.4 3.2 1.5 1.6 6.4 1.7 55.5 2 48.4.2 53.9.1 55.1-1.4 2.6-3.1 0-4.9-7.7-5.2l-7-.3-.7-15.2c-.3-8.4-.7-16.1-.9-17.2-.2-2 .5-2 182.3-2.2l182.5-.2 1.7 2.9c2 3.5 2.9 3.7 5.2 1.1 3.6-4 6.2-16.1 3.5-16.1-1.7 0-7.9 4-7.9 5.1 0 .5-.7.9-1.5.9-1.3 0-1.5-10.5-1.5-88.5V677h5.3c2.9 0 5.8-.5 6.5-1.2.7-.7 1.2-3.9 1.2-7.5 0-5.1-.3-6.4-1.9-7.3-1.2-.6-9.4-1-19.8-1h-17.9l.4-6.8c.5-9-2.9-15.8-10.8-22-15.5-12-16.9-17.5-8.8-33.5 1.6-3.3 2.7-6.5 2.4-7.3-.4-.9-2.2-1.4-5.6-1.4h-5v-12h29.9c18.4 0 30.2-.4 30.6-1 .3-.5-1.7-11.2-4.4-23.7-2.8-12.6-8-36.3-11.6-52.8-7.5-34.2-8-36.1-10.1-36.9-.9-.3-20.6-.6-44-.6H845l-1.4 2.2c-.8 1.3-3.1 10.2-5.1 19.8-4 19.2-14.1 63.6-18.1 79.8-1.4 5.7-2.3 11-2 11.7.4 1.3 5.2 1.5 30.6 1.5h30v13h-4.8c-2.7 0-5.1.3-5.4.6-.4.3 1 4 3 8.2 4.3 9.1 5.3 17.1 2.8 22.1-1 1.9-4.4 4.9-8.5 7.6-10.9 7-15.1 13.8-15.1 25v6.5h-10v-22.8c0-26.1-.5-27.9-8.3-34.9-5.9-5.1-11.5-6.8-20.1-5.8l-6.5.7-.3-62.9c-.3-61.7-.3-62.9-2.4-67.4-3.2-6.9-8.6-12.3-15.6-15.5l-6.3-2.9-72.4-.3-72.5-.2-5-5.7c-6.9-7.7-12.3-10.9-32.6-19.3-25.8-10.7-42.4-18-43.6-19.3-1.2-1.3-8.4-23.6-8.4-26 0-.9 2-4.9 4.4-8.9 2.4-4 4.7-8.3 5-9.5.5-1.5 2.2-2.7 5.5-3.8 17.8-5.9 22.3-27.2 8.1-38.5-2.2-1.7-3.8-3.5-3.6-3.9 1.7-2.7 4.9-27.3 5-38.1 0-10.8-.2-13.1-2.1-17-3-6.4-6.7-11.1-11.5-14.2-3.4-2.3-4.4-3.9-6.2-9.2-5.3-15.5-20-25.3-39.6-26.4-19.2-.9-29.4 3.4-46.9 20.3-6.4 6.2-12.7 11.6-14 12-1.3.4-4.7.4-7.7 0l-5.4-.6v2.8c.1 1.5 1 5.3 2.1 8.3 1.2 3 2.5 9.2 2.9 13.8.7 5.8 2 10.7 4.4 16.5 2.1 4.7 4 11.4 4.6 15.7.6 4.1 1.8 9.7 2.7 12.5 1.2 3.6 1.3 5 .4 5.3-2.7.9-7.1 5.5-9 9.5-3.9 8.1-2 18.6 4.5 25.1 3.4 3.3 9.5 6.6 12.3 6.6 1.6 0 3 1.8 5.7 7.2 2 4 4.5 8.6 5.6 10.1 2.2 3.1 2.3 2.5-3 20.7l-2.8 9.5-11.5 5.2c-6.3 2.8-20.7 9.1-32.1 13.8-23.7 10-28.7 13-34.2 20.2l-3.9 5.3-27.1-.2c-14.9-.1-22-.4-15.8-.5l11.2-.4-.2-126.2-.3-126.2-110.3-.3c-87.7-.2-110.4 0-110.7 1zm214.7 2.4c1.7.5 1.8 6.1 1.8 119.5 0 65.4-.4 118.9-.8 118.9s-3-2.3-5.7-5c-2.7-2.8-5.3-5-5.7-5-2 0-.3 2.4 5.9 8.4 6.3 6.1 6.5 6.5 4.2 7.1-1.3.3-38.3.4-82.3.3l-79.8-.3-2.4-6.5c-1.3-3.6-2.4-6.8-2.4-7.3 0-.4 34.2-.7 76-.7h76v-99.9c0-54.9-.3-101.9-.6-104.4l-.7-4.7-88.3.2-88.4.2V377h-17v-89.3c0-49.2.2-89.6.4-89.8.7-.7 207.7-1 209.8-.3zm172.3 17.8c10.4 2.7 19 8.8 23.3 16.5 2.3 4 1.7 5.6-.9 2.5-.7-.8-2.6-2.2-4.3-3l-3.1-1.4 2.5 1.7c5.6 4.1 7.9 6.5 8.9 9.4 1 3 1 3.1-1.2 2.5-8.7-2.6-16.2-1.4-25.3 4.1-3.2 1.9-6.8 3.7-7.9 3.8-1.1.1-5.9 2.1-10.6 4.4-4.7 2.2-11.5 4.7-15 5.6-11 2.6-24.6 1.6-28.2-2-.8-.8-1.7-1.1-2.1-.8-.3.4-.6.1-.6-.5 0-.7-.6-1.2-1.4-1.2-2 0-8.6-6.4-8.6-8.4 0-1.1.9-1.6 2.5-1.6 4.4 0 8.6-2.9 19.5-13.4 11.2-10.7 17.7-14.9 27.5-17.7 7.3-2.1 18.2-2.3 25-.5zM328 323v99l-13.2.1c-7.3.1-40.8.3-74.4.4l-61.1.2-1.7-5.1c-.9-2.8-3.6-11.4-6-19.1-5.9-19-6.9-21.3-10-22.1l-2.6-.6V224h169v99zm218-77.5c1.6.8 3.4 2.3 3.9 3.2.6 1 1.1 1.2 1.1.5.1-4.2 8.4 2.3 11.9 9.4 2.9 5.7 3.6 11.5 2.6 22.7-.9 11.4-1.3 11.9-7 7.9-4.1-2.9-4.4-3-3-.8.9 1.3 3.2 3.2 5.1 4.1 3.3 1.5 3.4 1.8 2.8 5.8-1.2 8.2-3.1 15.2-3.9 15-.5-.1-1.4-2.1-2-4.5-.6-2.4-2.9-7.5-5.2-11.3-4.9-8.4-8.3-18.2-8.3-24.2 0-2.3.9-6.6 1.9-9.5 1.7-4.5 1.7-4.9.3-2.8-4.9 7.2-18.3 18.7-27.6 23.6-6.1 3.2-18.5 6.4-25 6.4-11.5-.1-22.2-4.4-29.7-12.2-4.7-4.9-4.9-6.2-.8-5.3 6.4 1.4 17.3.7 23.4-1.6 3.3-1.2 6.4-2.6 7-3 .5-.5-1.7 0-5 1.1-9.9 3.5-17.6 3.6-27 .6-4.3-1.4-8.1-2.3-8.4-2-.3.2.1 2.6.8 5.2.9 3.5 2.7 6.2 6.9 10.5 3.1 3.2 7 6.6 8.5 7.5 2 1.2 2.7 2.3 2.3 3.7-1 4.2-7.1 19.5-7.8 19.5-1.1 0-4.6-11.9-6.3-21.5-.9-5-3-12.1-4.6-15.8-1.7-3.7-3.3-9.1-3.6-11.9-.6-4.8-.5-5.1 1.3-4.3 9 3.8 27.8 4.8 37.5 1.9 2.9-.9 9.4-3.7 14.4-6.2 4.9-2.6 9.4-4.9 9.9-5.1 1.3-.5-8.2 8.8-12.4 12.2l-3.5 2.9 3.2-1.8c1.7-.9 5.7-3.9 8.9-6.7 7.2-6.1 16-12.1 19.9-13.5 4.5-1.6 14.2-1.4 17.5.3zm-2.3 47.5c1.5 3.6 3.8 8.3 5.1 10.4 3.8 6.1 4.4 9 5.1 24.6l.7 14.5 2.2-4.8c1.3-2.6 2.5-4.7 2.7-4.7.7 0-3.2 12.4-6 19-6.7 16-14.4 25.2-25.4 30.4-7.6 3.5-17.3 4.5-26.4 2.6-6.7-1.4-17.2-7.9-21.8-13.5-5.7-7.1-16.9-32.7-16.9-38.6 0-1.8.7-1 2.7 3.1l2.7 5.5.7-12c.7-13.5 1.6-17.5 6-27l3.1-6.6 4.7.8c7.5 1.1 19.2.7 25-1.1 8.7-2.6 19.2-8.2 25.1-13.5l5.5-4.9 1.3 4.6c.7 2.6 2.5 7.6 3.9 11.2zm-82.3 27.6c2.8 1.1 1.9 4.2-1.4 4.9-3.7.8-4.8 2.5-2.6 3.7 1 .6 1.6 2.2 1.6 4.7 0 2.1.9 6.4 2 9.6 1.1 3.2 1.8 6 1.6 6.2-.7.7-6-2.4-8.2-4.9-3.4-3.7-4.4-6.3-4.4-11.4 0-8.2 5.9-14.9 11.4-12.8zm106.3 1.6c2.7 1.3 5.3 6.5 5.3 10.6 0 6.3-4.2 12.7-10.4 15.9-2.7 1.4-2.8 1.4-2.2-.3.8-1.9 3.2-11.7 4.1-16.7.5-2.4.9-2.7 2.8-2.1 1.9.6 2 .5.9-.9-.7-.8-2.8-2.3-4.7-3.2-3.3-1.5-4.3-3.3-2.8-4.8.7-.8 3.6-.2 7 1.5zm-397.7 92c5.5 17.2 10.5 32.2 11 33.3 1.8 4.1 3.1 9.5 2.6 10.4-.4.5-.3 1.1.2 1.3.4.1 1.5 2.1 2.3 4.4 1.3 3.2 1.4 4.4.4 5.7-.7 1-1.6 1.7-2.1 1.7-.4 0-.3-.5.4-1.2 1.4-1.4 1.6-4.8.2-4.8-.5 0-.7.6-.4 1.4.3.8 0 1.7-.6 2.1-.7.4-1.4-.2-1.7-1.4-.3-1.2-1-2.1-1.5-2.1-.6 0-.8.6-.5 1.4.3.7-.3 2.1-1.4 3-1.9 1.5-1.9 1.5-1.3-.9.4-1.5.2-2.5-.5-2.5-.6 0-1.1.6-1.1 1.4 0 .9-1.1 1.3-3.2 1.2-1.8-.1-3.3-.7-3.3-1.3 0-.6-.3-1.5-.7-1.9-.5-.4-.8.2-.8 1.4 0 2.6-1.5 2.9-2.9.4-.9-1.5-1-1.6-1.1 0 0 1.2-.9 1.6-3.2 1.6-1.8-.1-3.6-.6-4-1.2-.5-.8-.8-.7-.8.1 0 .7-.7 1.3-1.5 1.3s-1.5-.5-1.5-1.1c0-.8-.5-.8-1.5.1-1.2 1-1.8 1-3 0-.9-.7-1.5-.8-1.5-.2 0 .6-2 1-4.5 1-2.5-.1-4.5-.5-4.5-1 0-.4-1-.3-2.1.4-1.7 1-2.3 1-2.6.1-.3-1-.9-1-2.5 0-1.6.9-2.2.9-2.5 0-.3-1-.9-1-2.3-.1-2.2 1.4-3.7.5-2.4-1.5.5-.7.2-.5-.8.5-2.1 2.3-3.4 2.3-4.7 0-.9-1.4-1-1.4-1.1-.2 0 1.4-2 1.6-13.5 1.6-11.1.1-13.3-.2-12.4-1.3.6-.7.8-1.3.4-1.3s-1.4.8-2.1 1.7c-1.7 2.4-3.2.8-1.6-1.7.7-1.1 1.2-2.3 1.2-2.7 0-.5-1 .7-2.1 2.4-1.2 1.8-2.5 3.3-3 3.3-1.2 0-1.1-1.7.1-2.5.6-.4 1-1.4.9-2.3-.3-3 .1-3.7 1.1-2.2.8 1.1.9.9.5-1-.6-2.8.2-5.9 9.9-37 8.9-28.6 11.7-37.2 12.8-39.3.8-1.5 3.1-1.7 25.8-1.7h24.9l10.1 31.2zm321.7-20.9c4.8 5 9.1 11.7 7.7 11.7-1.5 0-11.5-9.4-12.9-12-3.5-6.7-1.3-6.6 5.2.3zm45.3-2.8c0 2.9-5.5 9.4-10.6 12.4l-3.4 2 1.6-3.1c1.4-2.8 11.1-13.8 12-13.8.2 0 .4 1.1.4 2.5zm10.4 9.5 2.3 9.3-5 6.6c-2.8 3.6-7.6 9.4-10.6 12.9-4.7 5.3-5.7 6-6.3 4.5-.4-1-2.3-5.9-4.3-10.8l-3.6-9 5.8-5c3.2-2.7 8.7-7.9 12.3-11.5 3.6-3.6 6.6-6.5 6.8-6.4.2.1 1.4 4.4 2.6 9.4zm-49 9.7 4.9 4.1-4.4 10.2c-2.4 5.6-4.8 10.1-5.4 9.9-.5-.2-5.4-5.7-10.9-12.2l-9.9-11.9 1.1-3.6c.6-2 1.8-6.3 2.7-9.5l1.7-5.9 7.6 7.4c4.3 4.1 9.9 9.2 12.6 11.5zm-20.1 15.1c12.1 14.8 16.3 18.8 18.2 17.2.7-.6 2.6-4 4.1-7.5 1.6-3.6 3.1-6.5 3.4-6.5.3 0 1.2 1 2 2.2 1.2 1.9 1.5 8.9 1.5 42.4v40.1l-5.5 1.1c-7.3 1.6-13 4.5-19 9.9-7.2 6.5-11.3 12.5-19 28.5-3.9 7.9-7.8 15.8-8.8 17.7-1.6 3.2-2.5 3.7-11.2 6.1-5.2 1.5-10.9 3-12.6 3.3l-3.1.6-.7-36.2c-.7-33.5-1.6-47.1-3.4-50.3-.4-.8-.8.5-.8 2.9-.1 2.3-.6 12.7-1.2 23.2-.6 10.4-1.1 25.6-1.2 33.7 0 16.3.2 16-6.6 13.9-1.6-.5-5.3-1.1-8.2-1.4l-5.3-.4 2.8 1.7c3.4 2 8.7 8 10.8 12 2.2 4.3.9 3.7-4.5-1.9-6.6-6.9-11.7-8.4-27.1-8l-12 .4.5-3c.3-1.6 1-8.9 1.6-16.1 2-26.9 10.6-74 17.1-94.1 2.5-7.5 9.1-15.3 15.8-18.7 2.5-1.3 12.3-5.5 21.6-9.4 9.4-3.9 21.9-9.3 27.9-12.1 6.1-2.7 11.3-4.8 11.7-4.5.5.2 5.5 6.2 11.2 13.2zm90.5-7.7c2.6 1.1 13.5 5.7 24.2 10.1 10.7 4.4 21.3 9 23.5 10.3 5.2 3.1 11 8.8 14 13.9 6.3 10.7 16.4 63.6 19.5 102.4.6 7.2 1.3 13.8 1.6 14.5.4 1-2 1.2-12.1.9-12.4-.4-12.6-.4-18.8 2.6-4.1 2.1-7.5 4.7-9.9 7.8-2.1 2.6-3.8 4.4-3.8 4 0-2.4 5.6-10.9 9.9-14.9 5.8-5.4 5.2-5.6-6.1-2.6-4.4 1.2-8.1 1.9-8.3 1.7-.6-.5-3-60.7-2.9-71.3l.1-7-1.5 4.5c-1.1 3.4-1.7 14.5-2.5 45.5-.5 22.5-1.1 41.1-1.2 41.3-.1.1-3.3-.5-7.1-1.4l-6.9-1.7-5.2-7.6c-11.6-17-32.2-40.5-41.1-47.1-3.7-2.7-9.3-5.9-12.4-7.1l-5.8-2.1v-40.7c0-37.7.2-40.8 1.9-43l1.8-2.3 2.8 6.6c3.8 9 5 9.9 8.4 5.9 1.4-1.8 7.5-9 13.5-16.2l10.9-12.9 4.3 1.9c2.4 1 6.5 2.8 9.2 4zm-55.6 54.1c.1 20 .2 37.4.2 38.8.1 1.6-.5 2.5-1.4 2.5-1.3 0-1.5-5.2-1.8-38.8-.2-34 0-38.7 1.3-38.7s1.5 4.6 1.7 36.2zm-272.8-22.7c-7.1 2.2-12.1 5.3-16.3 10.1-7.2 8.2-7.1 7.3-7.4 76.5l-.2 61.4-7-.3c-11.9-.5-19.2 3.2-24.1 12.1l-2.9 5.2-.3 23.2-.3 23.3h-26.8l-2.9-4.3c-5.1-7.6-9.3-15.7-8.7-16.7.3-.5 1.3-1 2.1-1 5.3 0 15-8.6 18.6-16.5l2.3-5v-116l18.8-.3c14.5-.2 18.7-.5 18.7-1.5 0-.7-1.4-5.3-3-10.3-1.7-4.9-5.3-16-7.9-24.6l-4.9-15.8 26.2-.3c14.3-.1 27-.3 28.1-.4 1.1 0 .2.5-2.1 1.2zm48.4-.8c-8.2.2-21.4.2-29.5 0-8.2-.1-1.5-.3 14.7-.3s22.9.2 14.8.3zm23.5 0c-.7.2-2.1.2-3 0-1-.3-.4-.5 1.2-.5 1.7 0 2.4.2 1.8.5zm71.7 7.2c0 .5-.4 2.1-1 3.5-1.4 3.7-9.6 41.7-11.1 51.1-.6 4.4-1.3 8.1-1.4 8.3-.1.1-6-.7-13.1-1.8-13.5-2-42.9-5.8-66.9-8.5-7.7-.8-15.4-1.8-17.2-2-1.7-.3-6.2-.5-10-.6-12.8-.3-14.3 2.3-11.8 20.8.9 7 2.5 19.5 3.6 27.8 2.1 16.5 4.7 35.4 5.4 39.8.4 2.7.3 2.8-2.8 2.5-1.7-.2-3.2-.8-3.2-1.4 0-1.4-3-4.4-4.4-4.4-.6 0-1.1.8-1.1 1.7-.1 1.7-.1 1.7-1.4 0-1.8-2.3-2.3-2.2-5 1l-2.3 2.7-2.2-2.1c-2.1-2-2.1-2.2-.5-3.1 1.6-.9 1.5-1.2-1.1-3.6-1.5-1.4-3.3-2.6-4-2.6-1.7 0-4 2.9-3 3.8.4.4 1 .1 1.2-.6.3-.6.9-1.2 1.5-1.2 1.5 0 4.1 3 3.3 3.8-.4.4-1 .1-1.2-.6-.5-1.4-3.3-1.6-3.3-.2 0 1.4-2.8 1.2-3.3-.3-.3-.8-1-.7-2.6.7-2.1 1.9-2.1 1.9-2.1-.3 0-1.2.4-1.9 1-1.6.6.3 1 .1 1-.4 0-.6-.4-1.1-1-1.1-.5 0-1-.9-1-2 0-1.3.5-1.8 1.5-1.4.8.4 1.5.1 1.5-.5s-.7-1.1-1.5-1.1c-1.3 0-1.5-6.7-1.5-54.4 0-32.2.4-55.5 1-57 1.3-3.5 7.7-10.4 11.4-12.3 1.7-.9 5.8-1.9 9.1-2.3 9.4-1.1 139.5-1.1 139.5-.1zm400.4 1.4c6.6 2.9 10.7 6.7 13.2 12.1l2.4 5.1-.1 51.4c0 29.9-.4 52.4-1 53.8-.6 1.7-.6 3 .2 3.9.6.7.8 1.8.4 2.4-.9 1.5-2.8.1-2.1-1.6.8-2-.4-1.7-3.1.7-2.2 2.1-2.3 2.1-3 .3-.4-1-1.3-2.4-2.2-3-.8-.6-1.2-1.8-.8-2.8.4-.9.2-1.6-.3-1.6-.6 0-1 .8-1 1.7 0 1.2-.3 1.4-1 .7-1.7-1.7-.1-4.5 1.9-3.5 1.2.7 2.4.4 4.1-1 2-1.5 2.2-1.9.8-1.9-1 0-1.8.4-1.8 1 0 .5-.7 1-1.5 1s-1.5-.5-1.5-1.2c0-.6-1.1-.1-2.4 1.1-2.3 2.2-2.5 2.2-3.4.4-1-1.7-1.1-1.7-2.4 0-1.3 1.7-1.5 1.7-4.1-.7l-2.7-2.5.6 2.4c.5 1.9.2 2.5-1.1 2.5-1.2 0-1.6-.6-1.2-2 .3-1.1.1-1.8-.4-1.4-1.6.9-1 3.3 1.1 4.6 2.3 1.5 2.7 3.8.5 3.8-.8 0-1.5-.7-1.5-1.5s-.4-1.5-1-1.5c-1.4 0-1.3 1.3.2 2.8 1 1 1 1.5-.1 2.2-1.3.7-1.3 1.1-.1 2.5s1.2 1.8-.1 2.5c-1.1.7-1.1 1.2-.1 2.2.9.9 1.2.9 1.2-.5 0-.9.5-1.7 1-1.7 1.7 0 1.1 1.8-1.5 4.5-1.7 1.6-3.7 2.5-5.6 2.5h-3l.6-5.8c.4-3.1 1.4-9.8 2.1-14.7.8-5 1.7-11 1.9-13.5.7-6.1 3.2-25.7 4.4-35 1.8-13.5 1.5-16.5-2-19.4-2.4-2.1-4.1-2.6-8.4-2.6-4.6 0-49.9 5-71.5 7.9-4.1.6-12.9 1.8-19.5 2.6-6.6.9-13.2 1.8-14.6 2.1-2.5.5-2.6.3-3.8-6.8-2.6-14.6-8.1-41.3-10.1-48.5-1.1-4-2-7.6-2-7.8 0-.3 31.8-.4 70.8-.3 65.3.3 71 .4 74.6 2.1zm147.5 26.4c3.9 17.8 18 82.7 18.8 86.5l.6 2.8H824.2l2.3-9.3c4.1-16.7 9.4-39.8 15-65.7 3.1-14 5.8-26.3 6.1-27.3.5-1.6 3.3-1.7 40.8-1.7h40.3l3.2 14.7zm-812.5-11.6c-.3.5-1 .7-1.5.3-.5-.3-.7-1-.3-1.5.3-.5 1-.7 1.5-.3.5.3.7 1 .3 1.5zm8.6-.5c0 .8-.5 1.2-1 .9-.6-.4-.8-1.1-.5-1.6.9-1.4 1.5-1.1 1.5.7zm4.5-.7c.3.5.1 1.2-.5 1.6-.5.3-1-.1-1-.9 0-1.8.6-2.1 1.5-.7zm11 .1c.3.5.1 1-.4 1-.6 0-1.1-.5-1.1-1 0-.6.2-1 .4-1 .3 0 .8.4 1.1 1zm5.5 0c0 .5-.4 1-1 1-.5 0-1-.5-1-1 0-.6.5-1 1-1 .6 0 1 .4 1 1zm4 .6c0 .8-.4 1.2-1 .9-.5-.3-1-1-1-1.6 0-.5.5-.9 1-.9.6 0 1 .7 1 1.6zm3.7.6c-.3.8-.6.5-.6-.6-.1-1.1.2-1.7.5-1.3.3.3.4 1.2.1 1.9zm4.8-1.2c.3.5.1 1-.4 1-.6 0-1.1-.5-1.1-1 0-.6.2-1 .4-1 .3 0 .8.4 1.1 1zm4 0c.3.5.1 1-.4 1-.6 0-1.1-.5-1.1-1 0-.6.2-1 .4-1 .3 0 .8.4 1.1 1zm4.5 0c0 .5-.4 1-1 1-.5 0-1-.5-1-1 0-.6.5-1 1-1 .6 0 1 .4 1 1zm4 0c0 .5-.5 1-1.1 1-.5 0-.7-.5-.4-1 .3-.6.8-1 1.1-1 .2 0 .4.4.4 1zm-88 1c0 .5-.4 1-1 1-.5 0-1-.5-1-1 0-.6.5-1 1-1 .6 0 1 .4 1 1zm4-.6c0 .3-.4.8-1 1.1-.5.3-1 .1-1-.4 0-.6.5-1.1 1-1.1.6 0 1 .2 1 .4zm4 0c0 .3-.4.8-1 1.1-.5.3-1 .1-1-.4 0-.6.5-1.1 1-1.1.6 0 1 .2 1 .4zm4 .6c0 .5-.4 1-1 1-.5 0-1-.5-1-1 0-.6.5-1 1-1 .6 0 1 .4 1 1zm4 0c0 .5-.2 1-.4 1-.3 0-.8-.5-1.1-1-.3-.6-.1-1 .4-1 .6 0 1.1.4 1.1 1zm5-.6c0 .3-.4.8-1 1.1-.5.3-1 .1-1-.4 0-.6.5-1.1 1-1.1.6 0 1 .2 1 .4zm4 .6c0 .5-.4 1-1 1-.5 0-1-.5-1-1 0-.6.5-1 1-1 .6 0 1 .4 1 1zm4 0c0 .5-.4 1-1 1-.5 0-1-.5-1-1 0-.6.5-1 1-1 .6 0 1 .4 1 1zm45.3 39.7c1.3 20.3.7 29.3-1.9 29.3-1 0-.8.6.6 2 1.9 1.9 2 3.3 2 35.2 0 32.8-.1 33.4-2.4 38.3-1.2 2.7-3.1 5.7-4.1 6.5-1.7 1.4-1.7 1.3-.8-.5 1.8-3.4 2-18.5.3-18.5-.5 0-1 2-1 4.4 0 2.5-.4 4.7-.8 5-.5.3-8.3.6-17.3.7-15.8.1-16.4 0-17.5-2-2.1-4.1-2.6-3.5-2.2 3.2.1 3.7 0 6.7-.3 6.7s-1.5-1.7-2.7-3.9c-2.1-3.8-2.2-4.7-2.2-39.4v-35.5l3.6.3c2.7.2 4.2-.4 6.2-2.2l2.6-2.4-2.8 1c-4.2 1.7-7.4 1.3-8.6-.8-.6-1.2-1-9.3-1-19.5v-17.5l7.3-.4c3.9-.1 15.1-.4 24.8-.5l17.6-.2.6 10.7zm361.9 12.6c5.4 2.8 8.3 5.1 15.3 12.7l4 4.4-5-3.7c-23.3-17.3-40.8-15-59.4 7.8l-3.2 4 3.2-6.4c5.6-10.8 13.4-18.1 22.9-21.2 5-1.7 16.5-.4 22.2 2.4zm-7.9 12.7c-5.7 1.3-12.3 6-15.4 10.8-1.6 2.6-7.3 13.4-12.5 24.1-5.2 10.6-9.7 19.1-10 18.8-.6-.6 9.4-24.3 15.2-35.8 2.3-4.7 5.4-10 6.8-11.6 3.5-4.1 10.2-7.3 15.1-7.2 4 .1 4 .1.8.9zm-180 9.6c6.2 2.1 5.5 2.8-1.4 1.3-6.1-1.3-21.8-.6-28 1.2-3.9 1.2-6.1.7-4.3-1.1 3.9-3.9 24-4.8 33.7-1.4zm384.1-.3c4.8 1.7 6.4 4.4 2 3.3-6.5-1.7-14.4-2.6-22.3-2.6-4.6 0-8.2-.2-7.9-.5 2.5-2.6 21.3-2.7 28.2-.2zm-315.8 31.3c5.4 2.8 8.5 5.7 7.3 6.9-.3.3-4.2 0-8.6-.6-12.6-1.8-27.5 1.8-35.1 8.5l-3.5 3.1.6-4.9c.4-2.7.7-6.3.7-8.1 0-2.9.5-3.4 4.3-4.8 7.5-2.9 12-3.6 20.4-3.3 6.8.2 9.2.7 13.9 3.2zm163.6-.9c6.4 2.9 12.4 9.3 16.1 17.1 4 8.5 4.8 18.3 4 45.7-.9 25.5-1.8 21.1-3.1-14-.8-21.2-1.1-23.4-3.3-28-9.3-19.6-31.4-23.2-47.9-7.8-6.4 5.9-6.9 6-4.3 1 3.9-7.5 9.3-12.5 17-15.3 5.1-1.9 15.6-1.3 21.5 1.3zm85.3-.1c6.6 2.2 7.6 3.1 7.4 6.8-.1 1.7.1 5.1.6 7.5l.7 4.5-3.1-2.6c-8.9-7.5-22-10.8-35.3-9-4.5.7-8.4 1-8.6.7-.9-.9 3.2-4.6 7.1-6.7 2.2-1.1 5.8-2.3 8-2.8 5.5-1.2 17-.4 23.2 1.6zm128.5 5.6c0 .5-.7.8-1.5.8-1.9 0-1.9 1.4 0 3.4 1.4 1.4 1.4 1.8-.1 4.1-.9 1.3-2.1 2.2-2.7 1.8-.6-.4-.3-1.1.7-1.9 1.2-.8 1.6-1.9 1.1-3.3-.7-2.4-3.5-2.9-3.5-.6 0 .8.5 1.5 1.1 1.5.5 0 .7.5.3 1.2-.6.9-.9.9-1.2 0-.2-.7-1-1.2-1.8-1.2s-1.4-.7-1.4-1.5.7-1.5 1.5-1.5 1.5-.5 1.5-1c0-.6.7-1 1.5-1s1.5-.7 1.5-1.5-.7-1.5-1.5-1.5c-1.5 0-2-1.2-.9-2.3.7-.7 5.4 3.3 5.4 4.5zm2-3.2c0 .5-.4 1-1 1-.5 0-1-.5-1-1 0-.6.5-1 1-1 .6 0 1 .4 1 1zm107.3 1.7c1.3 5.3-.4 10.2-3.5 10.3-1 0-1.1-10.4-.1-11.3 1.2-1.3 3.2-.7 3.6 1zm-103.9 2.5c-.3.5-1.2.4-2-.3-.7-.6-1.1-1.5-.8-2.1.3-.5 1.2-.4 2 .3.7.6 1.1 1.5.8 2.1zm-335.3 1c-2.8 7.1-7.6 17.7-12.4 27.9l-5.6 11.6-9.8 3.1c-5.4 1.7-14.1 4.3-19.3 5.7-10.9 3.1-10.9 3.1-13.6-6.3-3.7-12.6 3.4-27.6 15.2-32.3 4.5-1.8 11.8-3.7 25.9-6.8 7.2-1.6 14.1-3.4 15.5-4 4.1-1.6 5.1-1.4 4.1 1.1zm332.4 1.8c-.5.8-1.1.8-1.7.2-.6-.6-.7-1.6-.3-2.2.5-.8 1.1-.8 1.7-.2.6.6.7 1.6.3 2.2zm7.4.3c1.7 3.2 5 5.2 6.4 3.8 1.6-1.6 2.4-1.4 3 .9.3 1.1.1 2-.4 2s-.9-.5-.9-1c0-.6-.4-1-1-1-1.4 0-1.2 2.8.3 3.3.6.2.9.8.5 1.2-.8.9-3.8-1.8-3.8-3.5 0-.6-.4-.9-.8-.6-.9.6-4.2-2.9-4.2-4.4 0-.5-.7-.7-1.5-.4-.9.4-1.5 0-1.5-1 0-2.4 2.5-1.9 3.9.7zm6.2 2c-1.3 1.3-2.6.3-1.6-1.2.3-.6 1.1-.8 1.7-.5.6.4.6 1-.1 1.7zm-193.7 1.6c16.8 3.8 17.7 4.2 23.6 9.7 6.4 5.9 8.6 12.5 7.6 22.2-.7 6.6-2.8 13.2-4.3 13.2-1.3 0-18-4.7-27.7-7.7l-8.9-2.8-.3-11.1c-.4-11.3-1.7-16.9-5.4-23.1-1.9-3.3-1.9-3.3.2-3.3 1.1 0 8 1.3 15.2 2.9zM785 587c0 .5-.4 1-.9 1s-1.1 1-1.5 2.2c-.5 1.9-.8 2-1.5.8-.7-1-.5-2 .7-3.2 1.9-1.9 3.2-2.3 3.2-.8zm-151 2.1c7.4 1.2 14.4 4 17.8 7.2 10.1 9.4 10 29.3-.1 35.6-3.9 2.4-13.7 4.5-14.9 3.3-.5-.5-.1-2.5.7-4.6 1.9-4.6 2.2-18.9.5-24.3-1.7-5.2-7.6-12.7-11.6-14.9-2.3-1.2-2.9-2.1-2.1-2.6 1.6-1 2-1 9.7.3zm154 1c0 .5-.4.9-1 .9-.5 0-1-.7-1-1.6 0-.8.5-1.2 1-.9.6.3 1 1 1 1.6zm-392 1.8c-5.6 3.8-11.7 12.8-12.6 18.7-1 6.6 0 17.4 2 21.2l1.7 3.2H382c-11.6 0-19-8-19-20.2.1-15.3 12.2-25.6 30.4-25.7l6.9-.1-4.3 2.9zm-170 1.3c-1.2 1.1-2.4 1.8-2.6 1.5-.8-.8 2.9-4.7 3.9-4 .4.3-.1 1.4-1.3 2.5zm7.1-.9c-1.3 1.3-2.6.3-1.6-1.2.3-.6 1.1-.8 1.7-.5.6.4.6 1-.1 1.7zm546.9-.4c0 .6-.4 1.3-1 1.6-.5.3-1-.1-1-.9 0-.9.5-1.6 1-1.6.6 0 1 .4 1 .9zm5 .1c0 .5-.4 1-1 1-.5 0-1-.5-1-1 0-.6.5-1 1-1 .6 0 1 .4 1 1zm6-.6c0 .3-.4.8-1 1.1-.5.3-1 .1-1-.4 0-.6.5-1.1 1-1.1.6 0 1 .2 1 .4zM230 594c0 .5-.4 1-1 1-.5 0-1-.5-1-1 0-.6.5-1 1-1 .6 0 1 .4 1 1zm6 0c0 .5-.4 1-1 1-.5 0-1-.5-1-1 0-.6.5-1 1-1 .6 0 1 .4 1 1zm11 0c0 .5-.7 1-1.5 1s-1.5-.5-1.5-1c0-.6.7-1 1.5-1s1.5.4 1.5 1zm5 0c0 .5-.4 1-1 1-.5 0-1-.5-1-1 0-.6.5-1 1-1 .6 0 1 .4 1 1zm541 0c0 .5-.5 1-1.1 1-.5 0-.7-.5-.4-1 .3-.6.8-1 1.1-1 .2 0 .4.4.4 1zm-540.4 9.1c6.2 1.6 10 6.2 10.9 13.1.4 3 .4 19.3 0 36.3-.4 17.1-.7 42.3-.8 56-.2 22.5 0 25.4 1.6 27.8l1.7 2.7h49c30.4 0 49 .4 49 1 0 .5-1.1 1.7-2.6 2.7-3.4 2.4-10.5 8-12.4 9.7-.8.7-3.5 1.6-5.9 2-7.8 1.2-13.9 5.3-17.1 11.6-1 1.9-3 7.3-4.4 11.9-2.2 6.9-2.4 8.7-1.4 9.7 1.3 1.3 25.3 6.3 52.3 10.9 8.3 1.4 20.7 3.7 27.8 5.1 7 1.4 14.2 2.4 15.9 2.2l3.3-.3 6.6-21.5c5.8-19 6.9-21.5 8.8-21.8 1.8-.3 3.4-2.8 7.6-11.8l5.4-11.4 37.8.2 37.8.3.3 33.7.2 33.8H223l-.1-20.3c-.1-21.9-1.4-49.3-1.9-41.2-.1 2.7-.4 5.9-.5 7-.1 1.1-.2 13.8-.3 28.2L220 807h-7.9c-11.4 0-18.2-3.4-22.1-11.1-2-3.8-2-5.8-1.8-92.7l.3-88.8 2.8-4.3c4.9-7.4 7.6-8.1 34-8.1 13.6 0 24.6.5 27.3 1.1zm572.5 1.2c2.8 1.5 5.4 3.9 7.1 6.8l2.6 4.4.4 88 .3 88-2.2 4c-4.4 8.3-10.8 11.5-22.8 11.5h-7.2l-.6-25.7c-.4-14.1-.7-32.4-.7-40.6 0-8.3-.2-14.8-.4-14.6-.9.9-1.5 23.3-1.6 51.1V807H587v-68h170l1.6-2.5c1.4-2.2 1.5-7.9.9-61.3-.6-43.7-.5-59.7.4-62.4 1.4-4.2 5.7-8.6 9.7-9.8 1.6-.4 13.7-.9 27-.9 23.4-.1 24.2 0 28.5 2.2zm-279.6 5.9c-5.5 2.8-11.1 8.3-14.6 14.3s-3.9 4.3-.5-2.3c3.2-6.3 6.7-9.9 11.8-12.2 5.7-2.6 8.4-2.5 3.3.2zm338.8 5.3-.6 5.5h10.2l-.5-3.8c-.5-4.1-.7-4.4 3.5 4.8l1.6 3.5-9.7-.3c-5.4-.2-9.8-.5-9.8-.6 0-.2.7-1.7 1.6-3.5.9-1.8 1.8-5 2.1-7.2.8-6 2.2-4.6 1.6 1.6zm17.1 16.5c6.5 1 11.3 4.1 14.4 9.2 2.4 3.8 3.9 10.8 2.4 10.8-.5 0-1.2-1.2-1.5-2.8-.8-4-4.8-9.3-8.7-11.6-3-1.8-5.5-2.1-19-2.4-14.5-.3-15.8-.2-20 2-4.7 2.4-8.8 7.5-9.7 12.1-1 4.7-2.7 4.5-2-.3 1.1-8.1 8.2-15.4 16.6-17.1 5.4-1 20.9-1 27.5.1zm-761.1 26.8c-2.9.2-7.7.2-10.7 0l-5.4-.3 3.4-6.5 3.5-6.5-.6 4.7-.6 4.8h5.1c4.4 0 5.1-.2 4.6-1.8-.3-.9-.8-3.5-1.1-5.7-.5-3.7-.3-3.4 3.3 3.5l3.9 7.5-5.4.3zm274 9.9c-2.1 4.3-8.7 17.6-14.8 29.6l-11 21.8-52.3-.1c-49.2 0-52.6-.1-56-1.9-8.8-4.5-12.2-11.7-12.3-25.9 0-8.2.3-10.9 2.1-14.9 3.3-7.5 9.5-12.9 17.1-15.2 2-.5 29.4-1 67.1-1l63.8-.1-3.7 7.7zm109.4 21.5-.2 29.3-32.7.3c-19.3.1-32.8-.1-32.8-.7 0-.8 25.2-55 26.6-57.3.3-.4 9.3-.8 19.9-.8H524l-.3 29.2zm213.6-27.6c6.4 2.2 13 8.2 15.7 14.5 1.9 4.6 2.2 6.6 1.9 17-.4 11.2-.5 11.9-3.4 16-1.9 2.7-5 5.4-8.4 7.1l-5.3 2.8H587v-24.3c0-13.3-.3-26.6-.6-29.5l-.7-5.2h73.5c64.2 0 74 .2 78.1 1.6zM182 667c0 1.9-.9 2-57.2 2.2-31.5.2-57.7 0-58.2-.4s-.6-1.4-.3-2.2c.6-1.4 6.9-1.6 58.2-1.6 56.7 0 57.5 0 57.5 2zm776 0c0 2-.7 2-58.5 2-48.1 0-58.5-.2-58.5-1.3 0-.8.3-1.7.7-2 .3-.4 26.7-.7 58.5-.7 57.1 0 57.8 0 57.8 2zM90 750c0 37.9.1 69.3.3 69.7.1.5-2.4.9-5.5 1.1l-5.8.3v-69.4c0-38.1.3-69.7.7-70 .3-.4 2.8-.7 5.5-.7H90v69zm85.3-57.3.2 11.2-10 .3c-8.6.3-10 .5-10.3 2-.3 1.6.7 1.8 9.7 1.8H175v66.9l-9.7.3c-7.9.2-9.8.6-9.8 1.8 0 1.2 1.9 1.6 9.8 1.8l9.7.3V821H94v-42h10c9.3 0 10-.1 10-2s-.7-2-10-2H94v-66.9l9.7-.3c6.6-.2 9.8-.7 10.1-1.6.3-.9-2.1-1.2-9.7-1.2H94v-24l40.6.2 40.5.3.2 11.2zm755.7-.2c0 10.3-.2 11.5-1.7 11.6-1 0-3.6.1-5.8.3-2.2.1-6.1.3-8.7.4-3.5.1-4.8.6-4.8 1.7 0 1.2 1.8 1.5 10.5 1.5H931v66.9l-10.2.3c-8.4.2-10.3.6-10.3 1.8 0 1.2 1.9 1.6 10.3 1.8l10.2.3V821h-83v-41.9l10.3-.3c8.3-.2 10.2-.6 10.2-1.8 0-1.2-1.9-1.6-10.2-1.8l-10.3-.3V708h10c8.2 0 10-.3 10-1.5s-1.8-1.5-10-1.5h-10v-11.3c0-6.3.3-11.7.7-12 .3-.4 19-.7 41.5-.7H931v11.5zm15 58.5v70h-11V681h11v70zm-765-14.7c0 59.6.1 60.5 5.9 68.2 2.6 3.5 3 4.9 3.1 10.3v6.3l-5.2-.3-5.3-.3v-69.2c0-38.1.3-69.3.8-69.3.4 0 .7 24.4.7 54.3zm663 15.2V821h-11v-6.1c0-4.8.5-6.7 2.4-9.2 6.5-8.7 6.1-4.6 6.4-67 .2-35.4.6-56.7 1.2-56.7s1 25.7 1 69.5zm-510.2-29.7c46.9.2 53.2.4 53.2 1.8 0 .8-1.3 2-2.9 2.5-1.6.6-3.7 2.1-4.6 3.5L378 732h-44.6c-42.5 0-44.7-.1-48.4-2-4.4-2.2-7.5-5.2-9.6-9.2l-1.4-2.6 3.3 1.6c2.8 1.5 9.1 1.7 56.5 2zm411.7 2.1c-1.5 2.3-4.6 4.9-6.9 6.1-4.1 2-5.9 2-77.9 2H587v-10l76.3-.1c58 0 77.2-.4 80.2-1.3 2.2-.7 4.2-1.1 4.4-.9.2.1-.8 2.1-2.4 4.2zm-221.7 3.3.3 4.8h-36c-19.9 0-36.1-.2-36.1-.4s.9-2.4 2.1-5l2-4.6 33.7.2 33.7.3.3 4.7zm-121 9c7.1 3.5 14.7 9.7 12.1 9.8-.9 0-5.9-2.2-11-4.8-5.2-2.7-10.9-5.4-12.6-6-1.8-.6-3.3-1.6-3.3-2.3 0-1.9 7.8-.2 14.8 3.3zm-9 3.3c8.2 3.8 16.2 9.5 16.2 11.7 0 1-.3 1.8-.7 1.8-.3 0-4.1-2-8.3-4.5-4.3-2.5-10.6-5.7-14.1-7.1-7.5-3-7.3-2.9-6.4-4.4 1-1.7 6.4-.7 13.3 2.5zm-5.8 5.6c5.9 2.8 14.9 8.7 15 9.9 0 .3-.4 1.1-.9 1.8-.6 1.1-2.1.5-6.6-2.3-7-4.5-15-8.1-19.9-9-3.4-.7-4.5-2.2-2.8-3.9 1.2-1.3 8.4.3 15.2 3.5zm-6.2 6.4c8.8 4.2 13.2 7.2 13.2 9 0 2.8-2.9 2.1-9.6-2.2-3.8-2.4-10.2-5.4-14.1-6.6-4.7-1.3-7.3-2.6-7.3-3.5 0-2.4 9.4-.7 17.8 3.3zm-9.8 3.6c5.2 2.3 13.8 7.9 14.4 9.5.2.6.1 1.6-.4 2.3-.5.9-2.3.2-6.6-2.5-6.7-4.3-15.9-8.3-19.1-8.4-2.7 0-4-1.9-2.2-3.1 1.9-1.2 8.3-.2 13.9 2.2zm-13.7 6.1c4.3 1.3 10.8 6.5 14.8 12.1 3.7 5.1 3.6 5.7-.3 4.7-1.8-.5-7.1-1.4-11.8-2-13.2-1.7-30-6-30-7.8 0-2.4 5.9-7.1 9.8-7.8 2-.3 4.2-.7 4.7-.9 1.4-.5 8.2.4 12.8 1.7zm14.3 6.5c3.6 3.2 8.1 10.3 6.5 10.3-.6 0-2-1.8-3-3.9-1.1-2.1-4-5.6-6.3-7.6-2.4-2.1-3.4-3.3-2.3-2.7 1.1.6 3.4 2.3 5.1 3.9zM345 775c5.2 1.1 14 2.6 19.5 3.5 16.1 2.5 51.9 9.7 52.9 10.6 2.5 2.2-1.8 2-18.2-1-28.4-5.2-68.5-13.1-69.4-13.7-.5-.3-.6-.9-.3-1.3.5-.9 2-.7 15.5 1.9zm10 9c14 2.7 33.1 6.3 42.3 8 9.3 1.6 17.2 3.2 17.7 3.5.4.3.6 1.4.3 2.5-.6 2.2-2.6 2.5-9 1-2.2-.5-18.9-3.7-37-7-38.8-7.1-43.3-8.1-43.3-9.1 0-1.7 1.3-3.9 2.3-3.9.6 0 12.6 2.2 26.7 5zm-144.5 30h7.5l-.2 19.7-.3 19.8-10.6.3-10.6.3-.5-20.8c-.3-11.4-.3-21.1-.1-21.5.2-.4 1.9 0 3.8.8 2 .8 6.7 1.4 11 1.4zM827 833v21h-22v-40l7.8-.1c4.2-.1 8.8-.5 10.2-.9 1.4-.4 2.8-.8 3.3-.9.4-.1.7 9.3.7 20.9zm-79.2 1.2.3 19.8-80.7.2c-80.3.3-80.6.3-81.4-1.7-.4-1.2-1.1-5.5-1.5-9.6-.6-6.1-.4-8.2.9-10.7 1.1-2 1.6-5.7 1.6-10.7V814l80.3.2 80.2.3.3 19.7zm48.5-13.2h2.7v33h-19v-34.3l6.8.6c3.7.4 7.9.7 9.5.7zM243 837.5V854h-19v-33h19v16.5zm-153.2 1.7-.3 14.3-5.2.3-5.3.3V825h11.1l-.3 14.2zm85.2-8.8c0 3 .3 6.1.6 7 .6 1.4-3.4 1.6-40.5 1.6H94v-14h81v5.4zm15 9.1V854h-10v-29h10v14.5zm654 0V854h-11v-29h11v14.5zm87-7.5v7h-83v-14h83v7zm14.8 7.2-.3 14.3-5.2.3-5.3.3V825h11.1l-.3 14.2zm-376.4-7.3c1.6.3 3.1 1.2 3.4 1.8.3 1-3.7 1.3-17.8 1.3-17.7 0-20.6-.6-14.6-3 2.4-1 24.6-1.1 29-.1zm-2.3 7.7c1.7.8 2.9 1.8 2.6 2.1-.6.6-31.7 1-31.7.4 0-.3.7-1.3 1.7-2.3 1.4-1.5 3.2-1.8 13-1.8 8.4 0 12.2.4 14.4 1.6zm5.3 7.5c6.2 3 3.9 3.4-17.9 3.4-11.8 0-21.5-.3-21.5-.6 0-1.6 3.9-3.8 7.5-4.2 8.2-1 28.9-.1 31.9 1.4zm357.6 2.4v4.5h-81v-9h81v4.5zm-360.2 6.4c2.3 1.2 4.2 2.6 4.2 3.1 0 1.3.2 1.3-9.9-.6-9.7-1.8-19.6-1.4-26.1 1.2-4.5 1.8-6 1.3-4-1.1 3.5-4.2 9-5.5 21.5-5.1 7.9.2 10.9.7 14.3 2.5zm-3.7 6.7c4.6 1.5 11.9 6.7 10.8 7.8-.3.4-3.2-.6-6.4-2-6-2.8-16.1-4.4-23-3.7-2.2.2-6.9 1.7-10.4 3.4-3.5 1.6-6.6 2.7-6.9 2.4-1.9-1.8 9.7-8.3 16.7-9.4 6.1-.9 13.6-.3 19.2 1.5zm4.4 10.9c6.9 3.8 6.9 3.9 4 4.5-4.2.9-42.5-.1-42.5-1.1 0-1.2 5.4-4.8 9.7-6.4 2.6-1 6.8-1.4 12.8-1.2 8.4.3 9.5.5 16 4.2zm10.9 10.1c1.7 4.5 2.2 4.4-27.8 4.4-17.5 0-28.7-.4-29.1-1-.3-.5-.1-1.9.5-3 1-1.9 2-2 28.4-2 24.1 0 27.5.2 28 1.6z"/><path d="m226.4 252.8-37.1.2-.5 70.8c-.3 38.9-.3 71-.1 71.4.2.5 26.7.8 58.9.8H306l.2-52.8c.1-29 .2-61 .2-71.2l.1-18.5-21.5-.5c-11.8-.3-38.2-.4-58.6-.2zm74 5.1c.9 1.3 1.5 90.2.9 113.8l-.6 19.3H193v-66.4c0-52.1.3-66.5 1.3-66.9 2.7-.9 105.5-.8 106.1.2z"/><path d="M220.5 277.9c-.3 1.7-.2 3.9.4 5 1.6 2.9 1.4 3.8-1.3 4.5-2.6.6-5.6 3.1-5.6 4.7 0 .5 4.3.9 9.6.9h9.6l-.7-8.3c-.4-4.5-.9-8.5-1.2-9-.2-.4-2.6-.7-5.3-.7-4.5 0-4.9.2-5.5 2.9zM212.5 280.5c.3 2.7.2 4.2-.1 3.2-.6-1.8-2.9-2.3-3.9-.8-.5.9 2 2.1 5.3 2.7 1.5.3 1.4-2.1-.3-6.6l-1.4-3.5.4 5zM241.1 282.2c.1 2.9.4 4.3.6 3 .2-1.2.9-2.2 1.6-2.2.8 0 .8-.3-.1-1.2-1.7-1.7-1.5-2.8.6-2.8 1.4 0 1.5-.2.2-1-2.6-1.7-3-1.1-2.9 4.2zM249.7 277.7c-.9.8-.9 5.6-.1 7.7.3.9 1.6 1.6 2.8 1.6 2-.1 2-.1-.3-1.4-2.2-1.2-2.3-1.4-.6-2.3 1.5-.9 1.6-1.1.1-1.6-2-.8-2.1-2.7 0-2.7.8 0 1.2-.5.9-1-.7-1.2-1.9-1.3-2.8-.3zM286.7 277.7c-1.4 1.3-.7 2.5.8 1.3.8-.6 1.9-.9 2.5-.5.5.3 1 .1 1-.4 0-1.2-3.3-1.5-4.3-.4zM203.2 281c0 1.9.2 2.7.5 1.7.2-.9.2-2.5 0-3.5-.3-.9-.5-.1-.5 1.8zM259 278.4c0 .2.7.9 1.5 1.6 1.2 1 1.5 1 1.5-.4 0-.9-.7-1.6-1.5-1.6s-1.5.2-1.5.4zM269.4 281.3c.1 3.9-2.5 4.5-3.5.7-.6-2.3-.7-2.3-.8-.3-.1 1.2.6 2.9 1.5 3.8 1.5 1.4 1.7 1.4 3-.2 1.5-2.1 1.8-5.9.5-6.7-.5-.3-.8.9-.7 2.7zM273.9 281.6c-1.1 3-.3 4.7 1.1 2.4.8-1.3 1.1-1.2 2.3.3 1.2 1.8 1.4 1.7 2.7-1l1.4-2.8.4 2.7c.4 3.1 1.7 3.7 2.6 1.2.8-2.2.8-2.6-.3-1.9-.5.3-1.3-.5-1.6-1.7l-.7-2.1-1.8 2.3-1.7 2.3-.6-2.2c-.7-2.9-2.5-2.6-3.8.5zM286 282.5c0 1.2.5 2.6 1.2 3.3 1.5 1.5 3.8 1.6 3.8.2 0-.6-.5-.9-1.2-.8-.6.2-1.7-.8-2.5-2.2-1.1-2.2-1.3-2.3-1.3-.5zM245.8 284.5c.2 1.4.6 2.5.8 2.5.2 0 .4-1.1.4-2.5s-.4-2.5-.9-2.5c-.4 0-.6 1.1-.3 2.5zM260 283.3c2.7 1.5 3.6 1.4 2.5-.2-.3-.6-1.6-1.1-2.8-1.1-2.1 0-2.1.1.3 1.3zM203 289c0 4 0 4 3.8 4 3.2 0 3.9-.4 4.8-2.9 1.1-2.7 1-2.8-1.5-2.8-1.4.1-3.6-.5-4.8-1.1-2.2-1.2-2.3-1.1-2.3 2.8zM267 370.5v2.5h24v-5h-24v2.5zM247.7 375.8c-2.2 2.4-2.1 5.5.1 7.5 3.7 3.3 9.2 1.1 9.2-3.7 0-4.8-6.2-7.3-9.3-3.8zM262 381v3h30v-6h-30v3zM483.2 316.7c-2.8 2.8-1.8 4.2 1.7 2.4 2.5-1.4 6.7-1.4 9.2-.1 1.1.6 2.4.8 2.9.5 1.4-.9.1-3.1-2.6-4.4-4.2-1.9-8.3-1.3-11.2 1.6zM526 316c-2.7 2.7-2.6 4.3.3 3.3 1.2-.4 3.8-.8 5.7-.8 1.9 0 4.5.4 5.8.8 1.6.6 2.2.5 2.2-.7 0-4.3-10.3-6.3-14-2.6zM487.6 326.2c-2.3 3.3-2 9.4.5 11.9 1.8 1.8 2.3 1.9 4.2.6 2.9-1.9 3.7-10.6 1.2-13.1-2.2-2.2-4.1-2-5.9.6zM528.6 326.2c-1.8 2.6-2.1 8-.6 10.9.7 1.2 2.1 1.9 4 1.9 2.4 0 3-.6 4-3.5 1.2-3.8.7-7-1.8-9.8-2-2.3-3.8-2.2-5.6.5zM505.3 360.2c-.2.5 2.3.8 5.6.8 3.4 0 6.1-.3 6.1-.8 0-.4-2.5-.7-5.6-.7-3.1 0-5.8.3-6.1.7zM94 467c0 .5.5 1 1 1 .6 0 1-.5 1-1 0-.6-.4-1-1-1-.5 0-1 .4-1 1zM271.5 465c2.6 2.7 2.9 3.9 3.9 14.1.6 6.1 1.4 11.1 1.9 11 .4-.1 1.2-.1 1.7-.1.6 0 1-5.3 1-14 0-13.1-.1-14-1.9-14-1.1 0-2.1.6-2.4 1.2-.4 1-.7 1-1.8 0-.7-.6-2.2-1.2-3.3-1.2-1.8 0-1.7.3.9 3zM230 572c0 .5.5 1 1 1 .6 0 1-.5 1-1 0-.6-.4-1-1-1-.5 0-1 .4-1 1zM227.5 575c.3.5.8 1 1.1 1 .2 0 .4-.5.4-1 0-.6-.5-1-1.1-1-.5 0-.7.4-.4 1zM233 575.1c0 .5.5.7 1 .4.6-.3 1-.8 1-1.1 0-.2-.4-.4-1-.4-.5 0-1 .5-1 1.1zM238 575c0 .5-.7 1-1.5 1s-1.5.4-1.5 1c0 1.7 2.7 1.1 3.5-.8.6-1.6.7-1.6 2.1.2.7 1.1 1.7 1.7 2 1.3.8-.7-2-3.7-3.5-3.7-.6 0-1.1.4-1.1 1zM244 575c0 .5.5 1 1 1 .6 0 1-.5 1-1 0-.6-.4-1-1-1-.5 0-1 .4-1 1zM247.6 576.1c-1.2 1.1-1.5 1.9-.7 1.9 1.3 0 4.1-2.4 4.1-3.4 0-1.1-1.5-.5-3.4 1.5zM224.5 577c-.3.5.1 1 1 1s1.3-.5 1-1c-.3-.6-.8-1-1-1-.2 0-.7.4-1 1z"/><path d="M229.5 577c-.3.6.1 1.3.9 1.6.9.3 1.6 1 1.6 1.5 0 1.4-2.8 1.1-3.3-.4-.2-.6-.8-.9-1.2-.5-.9.8 1.8 3.8 3.4 3.8.6 0 1.1-.5 1.1-1 0-.6.7-1 1.5-1s1.5.7 1.5 1.5.6 1.5 1.3 1.5c.6.1 2.3 1.4 3.7 3 2.6 3.3 4 3.8 4 1.6 0-.8.8-1.7 1.7-2 1.3-.5 1.4-.9.4-1.9-1-.9-1.5-.8-2.6.6-1.3 1.8-1.4 1.8-3.4-.2-2.5-2.5-2.7-4.1-.6-4.1.8 0 1.5-.5 1.5-1 0-.6-.7-1-1.5-1s-1.5.4-1.5 1c0 .5-.7 1-1.5 1s-1.5-.5-1.5-1c0-.6-.7-1-1.5-1s-1.5-.7-1.5-1.5c0-1.7-1.6-2-2.5-.5zM252 577c0 .5.5 1 1 1 .6 0 1-.5 1-1 0-.6-.4-1-1-1-.5 0-1 .4-1 1z"/><path d="M248.2 580.5c-2.6 2.7-2.8 3.5-.7 3.5.8 0 1.5.7 1.5 1.5s-.7 1.5-1.5 1.5c-.9 0-1.2.6-.9 1.5.4.8 1 1.5 1.5 1.5s.9-.7.9-1.5c0-1.8 2.7-2 3.3-.3.2.8.8.9 1.3.4s.4-1.1-.3-1.3c-1.5-.5-1.7-3.3-.3-3.3 1.5 0 1.2-1.9-.8-4-1.7-1.8-1.8-1.8-4 .5zm3.8 2c0 .8-.7 1.5-1.5 1.5s-1.5-.7-1.5-1.5.7-1.5 1.5-1.5 1.5.7 1.5 1.5zM244 580c0 .5.5 1 1 1 .6 0 1-.5 1-1 0-.6-.4-1-1-1-.5 0-1 .4-1 1zM241.5 582.1c-1 1.5.3 2.5 1.6 1.2.7-.7.7-1.3.1-1.7-.6-.3-1.4-.1-1.7.5zM226 585c0 .5.7 1 1.5 1s1.5-.5 1.5-1c0-.6-.7-1-1.5-1s-1.5.4-1.5 1zM239 591.5c0 .8.7 1.5 1.5 1.5s1.5-.7 1.5-1.5-.7-1.5-1.5-1.5-1.5.7-1.5 1.5zM747.5 463c-3.3.4-5.5.7-5 .8.6.1.9 4.8.7 12.4-.3 12.4.6 17.1 2.8 13.8.5-.8 1-4.2 1-7.5.1-9.2 1.4-14.3 4.6-17.6 1.5-1.6 2.6-2.8 2.3-2.7-.2.1-3.1.4-6.4.8zM796 573.8c0 .7-.7 1.2-1.5 1.2-2 0-1.9.6.5 3 1 1 2.2 1.5 2.5 1.1.2-.5-.2-1.2-1.1-1.5-1.3-.5-1.4-.9-.4-2.1.7-.9 1-1.8.6-2.2-.3-.3-.6-.1-.6.5zM789.6 578.5c-.6 1.7.9 2.9 2.4 2 1.4-.9 1.2-2.2-.4-2.8-.8-.3-1.7.1-2 .8zM792.5 580.9c-.3.5-.1 1.2.4 1.5.5.3 1.1-.1 1.5-.9.6-1.6-.9-2.1-1.9-.6zM151.5 541c.3.5 1.5 1 2.6 1 1 0 1.9-.5 1.9-1 0-.6-1.2-1-2.6-1-1.4 0-2.3.4-1.9 1zM127.8 699.6c-3.3 1.7-5 4.6-4.2 6.8.9 2.4 2.8 1.9 5.2-1.4 1.7-2.2 3.1-3 5.3-3 2.1 0 4 .9 5.9 3 3.5 3.8 5.2 3.9 4.8.3-.7-5.8-10.7-9.2-17-5.7zM129.8 715.5c-5.4 3-6.3 8.6-2.2 13.4 4.2 5 10.8 4 14-2 4-7.7-4.2-15.6-11.8-11.4zM124.7 774.7c-.4.3-.7 1.5-.7 2.5 0 3 5.4 2.1 5.8-1 .3-1.7-.1-2.2-2.1-2.2-1.3 0-2.7.3-3 .7zM140.1 774.9c-2.3 1.5-.5 4.1 2.8 4.1 3.1 0 4.6-2.1 2.8-3.9-1.3-1.3-3.7-1.4-5.6-.2zM129.5 790.2c-3.2 1.8-4.4 4-4.5 7.9 0 6.9 6.2 11.3 12.2 8.8 2.9-1.2 5.8-5.4 5.8-8.3 0-6.6-8-11.6-13.5-8.4zM887 697.7c-3.9 1.2-6.3 3-7.6 5.5-2.7 5.3.8 6.7 4.4 1.8 1.8-2.3 3-3 5.7-3s3.9.7 5.7 3c2.9 4 5 3.9 4.6-.2-.2-2.3-1.1-3.7-3.3-4.9-3.5-2-7.4-2.9-9.5-2.2zM883.6 717.1c-5.3 6.3-1.9 14.9 5.9 14.9 5.1 0 8.5-3.6 8.5-9 0-8.5-9.1-12.2-14.4-5.9zM895.7 774.7c-2.8.7-1.6 3.8 1.6 4.1 1.8.2 2.9-.2 3.4-1.3.5-1.5-1.2-3.7-2.7-3.4-.3.1-1.3.3-2.3.6zM878.2 776.7c.2 1.1 1.4 1.9 3.1 2.1 2.2.3 2.7-.1 2.7-1.7 0-1.7-.6-2.1-3.1-2.1-2.4 0-3 .4-2.7 1.7zM884.1 791.6c-6.1 5.1-3 14.8 5.1 16.1 3.2.5 4.1.1 6.8-2.5 4.1-4.2 4.2-9.2.1-13.3-3.7-3.7-7.9-3.8-12-.3zM700.7 194.7c-.4.3-.7 52.8-.7 116.5V427h10.3c130.1.3 186.2-.1 187-1.3.5-.7.6-20.5.3-45.7-.3-24.5-.6-76.3-.6-115.3V194h-97.8c-53.8 0-98.2.3-98.5.7zm191.4 11.5c.9 10.8.9 196.3 0 204.7l-.6 6.5-5.4-6.2c-3-3.4-5.6-6-5.8-5.8-1 .9 2.9 6.5 7.1 10.4 2.5 2.3 4.6 4.5 4.6 4.7 0 .3-41.6.5-92.5.5s-92.5-.3-92.5-.7c0-.4 2.3-3.1 5.2-6 2.8-2.9 4.9-5.6 4.5-6-.4-.3-1.2-.2-1.8.4-.6.6-1.8.9-2.5.6-.8-.3-1.4.1-1.4.8 0 1.4-3.9 5.9-5.2 5.9-.4 0-.8-49-.8-109V198.1l9.8-.4c5.3-.2 47.3-.2 93.2-.1l83.5.2.6 8.4z"/><path d="M721.8 311c-.2 50.9-.3 92.6-.2 92.7 0 .2 34.8.4 77.2.5l77.2.3-.2-93-.3-92.9-76.7-.1H722l-.2 92.5zm149.4-82.8c.2 2.4.2 42 0 88.1L871 400l-72.3-.2-72.2-.3-.3-85.5c-.1-47 0-86.5.3-87.8l.5-2.2h143.9l.3 4.2z"/><path d="M750.4 260.5c-.3.8-.3 1.9.1 2.5.4.7 16.3 1 49 1 43.2 0 48.4-.2 48.9-1.6.3-.9.4-2 0-2.5-.3-.5-21-.9-49-.9-41.4 0-48.5.2-49 1.5zM755 283.9c-3.1.4-4.5 1.1-4.5 2.1 0 1.3 6.1 1.5 49 1.5 48.3 0 49 0 49-2s-.7-2-44.5-2.1c-24.5-.1-46.5.2-49 .5zM750.3 310.5c-.3.9-.4 1.8-.1 2 .7.7 97.6 1 98.3.3.4-.4.5-1.4.2-2.3-.6-1.3-6.4-1.5-49.2-1.5-42.8 0-48.6.2-49.2 1.5zM750.4 335.5c-.3.8-.3 1.8 0 2.3.3.6 17.5.8 41.3.7 60.3-.3 57.3-.1 57.3-2.5 0-2-.7-2-49-2-42 0-49.1.2-49.6 1.5zM802.9 368.6c-1.1 1.4-1 1.8.6 3s6.2 1.4 23.5 1.2l21.5-.3.3-2.8.3-2.7h-22.4c-19.4 0-22.6.2-23.8 1.6zM675.8 201.8c-1.9.4-3.4 4.4-2.3 6.1.9 1.6 5.1 1.3 6.5-.4 1.3-1.6.6-5.1-1.3-5.7-.7-.2-2-.3-2.9 0zM380.2 215.2c-1.7 1.7-1.5 3.6.7 4.7 2.5 1.4 5-1.3 3.5-3.7-1.4-2.1-2.7-2.5-4.2-1zM605 295v65h34.4c30.4 0 34.5-.2 35-1.6.8-2 .8-124.8 0-126.8-.5-1.4-4.6-1.6-35-1.6H605v65zm64 0v59h-28.9c-16 0-29.2-.3-29.4-.8-.3-.4-.3-26.9 0-59l.6-58.2H669v59z"/><path d="m628.2 263.2.3 14.3 11.4.3c6.3.1 11.8-.1 12.3-.6s0-2-1.2-3.5l-2-2.6 2-3.3c1.2-2 2-5.1 2-7.7 0-3.6-.6-4.9-3.4-7.7-3.4-3.4-3.5-3.4-12.5-3.4h-9.2l.3 14.2zm17-6.5c4.4 4-.7 12.3-7.6 12.3H634v-14h4.7c2.9 0 5.3.6 6.5 1.7zM621.5 289c-.3.6-.3 1.9 0 3 .6 1.9 1.5 2 18.5 2s17.9-.1 18.5-2c.3-1.1.3-2.4 0-3-.4-.6-7.6-1-18.5-1s-18.1.4-18.5 1zM626.6 304.9c-.3.5.5 3.9 1.8 7.7 1.3 3.8 3.8 12 5.6 18.1 3 10.2 3.6 11.3 5.6 11.3 2.1 0 2.8-1.5 7.9-17.2 6.4-20 6.6-21.1 2.8-20.6-2.4.3-3 1.2-6.7 12.3l-4 12-3.8-12.3c-3.5-11.1-4.1-12.2-6.3-12.2-1.3 0-2.6.4-2.9.9zM380.8 243.2c-2.1 2.3-3.8 4.5-3.8 4.8 0 .3 1.8 2.3 3.9 4.4l4 3.9 4-4c4.8-4.6 5-5.7 1.6-7.9-1.3-.9-2.7-2.4-3-3.5-.9-2.9-2.6-2.3-6.7 2.3zM383.6 280.4c-3.9 3.9-7 7.4-7 7.8-.1.3 3 3.8 6.8 7.8l6.9 7.2 7.3-7.4 7.3-7.3-7.2-7.6-7.2-7.7-6.9 7.2zM379.6 318.5c-.9.9-1.6 2-1.6 2.5 0 1.4 3.1 4.1 4.3 3.7 2.1-.7 3.2-3.6 2.1-5.4-1.5-2.4-2.9-2.6-4.8-.8zM396.2 341.7c-2.1.8-4.4 6.3-3.8 8.9 2.4 9.5 16.6 7.8 16.6-2 0-5.6-6.8-9.3-12.8-6.9zM637.5 383.2c-1.4 8.1-6.2 13.9-12.7 15.3-5.4 1.2-5.3 1.6.9 4.1 7 2.8 9.9 6.1 11.4 13.2.7 2.9 1.7 5.1 2.3 4.9.5-.2 1.5-2.3 2.1-4.8.7-2.4 1.7-5.4 2.4-6.7 1.4-2.7 8.3-7.2 11-7.2 2.4 0 5.1-1 5.1-1.9 0-.4-2.2-1.3-5-2-8.3-2.1-12-6.3-13.5-14.9-.4-2.5-1.2-4.2-2-4.2s-1.6 1.7-2 4.2zm4.7 20.5c-2.4 2.2-3.8 3-4.1 2.2-.2-.7-1.4-2.3-2.7-3.5l-2.2-2.3 3.1-3.4 3.2-3.4 3.2 3.4 3.2 3.5-3.7 3.5zM393 410.3c0 1.9-.6 2.6-2.2 2.9-3.2.5-3.5 2.8-.4 2.8 2.1 0 2.6.5 2.6 2.6 0 1.4.4 2.3 1 1.9.6-.3 1-1.5 1-2.6 0-1.4.7-1.9 2.5-1.9 1.6 0 2.5-.6 2.5-1.5s-.9-1.5-2.3-1.5c-1.8 0-2.3-.5-2.3-2.1.1-1.2-.5-2.4-1.1-2.6-.8-.3-1.3.5-1.3 2zM672.2 421.2c-3 3 .3 7.7 4 5.7 3-1.6 1.6-6.9-1.7-6.9-.6 0-1.6.5-2.3 1.2zM374.4 426.5c-.9 2.3 1 4 2.5 2.2.9-1.1.8-1.7-.4-2.7-1.2-1-1.6-.9-2.1.5zM817.7 462.7c-1.1 1-.8 4.1.4 4.9.6.3 1.8-.1 2.7-.9 1.3-1.3 1.3-1.9.2-3.1-1.4-1.7-2.3-2-3.3-.9zM44.5 854c-2 3.3 5.7 12 10.7 12 2.1 0 2.5-3.8.8-7.1-1.7-3.2-10.3-6.8-11.5-4.9zM975.6 854c-3.7 1.1-6.1 3.4-7.7 7.1-2.7 6.8 4.1 5.9 10.6-1.3 5-5.5 3.8-7.8-2.9-5.8zM381.1 937.4c-.8.9-1.1 4.7-.9 10.7.3 8.6.5 9.4 2.3 9.4 1.5 0 2.1-.8 2.3-3.3.3-2.9.6-3.2 3.7-3.2 2.4 0 3.9-.7 5.4-2.6 4.6-5.8.7-12.4-7.2-12.4-2.6 0-4.9.6-5.6 1.4zm9.4 5.6c.9 1.5-1.4 4-3.6 4-1.4 0-1.9-.7-1.9-2.5 0-2 .5-2.5 2.4-2.5 1.4 0 2.8.5 3.1 1zM399.4 937.3c-.3.8-.3 5.6-.2 10.8l.3 9.4 3.5-.1c1.9-.1 5.2-.2 7.3-.3 2.9-.1 3.7-.5 3.7-2s-1-2-5-2.5l-5-.7v-6.7c0-6.3-1-9.2-3.2-9.2-.5 0-1.1.6-1.4 1.3zM417.2 937.2c-.8.8-1.2 4.4-1.2 10.5v9.3h10.5c8.5 0 10.7-.3 11.1-1.5.8-2 10.4-2.1 10.4-.1 0 .8.7 1.6 1.5 2 1.7.6 4.8-.3 4.2-1.3-.3-.6-3-6.6-6.9-15.4-1.7-3.7-2.6-4.7-4.2-4.5-2.1.3-3 1.6-7.1 11.3l-2.6 6-5.7-.5c-4.4-.4-5.8-.9-6-2.3-.3-1.4.4-1.7 3.7-1.7 3.4 0 4.1-.3 4.1-2s-.7-2-4-2c-2.2 0-4-.3-4-.8.1-1.9 1.9-3.1 5.5-3.4 3.2-.2 4-.7 4-2.3 0-1.7-.8-2-6-2.3-3.8-.2-6.5.2-7.3 1zm26.8 11c0 .4-.9.8-2.1.8-1.5 0-1.9-.4-1.5-1.6.3-.9.6-2.1.6-2.7.1-1.3 3 2.2 3 3.5zM457 938c-4 4-1.9 9.7 4 10.9 4 .8 5.6 4.1 2 4.1-1.2 0-3-.4-4-1-1.3-.7-2.1-.6-3 .5-1.7 2.1.2 4.3 4.5 5.1 4.4.8 7.2-.2 9.2-3.2 2.3-3.6.5-7-5.3-9.4-5.7-2.5-5-4.5 1.2-3.5 3.5.5 4.4.3 4.4-.9 0-4.5-9.2-6.4-13-2.6zM473.6 939.1c-.3 1.7-.6 6.4-.6 10.4v7.2l6 .6c7.4.6 10 0 10-2.4 0-1.4-.9-1.8-4.7-2.1-3.6-.2-4.9-.7-5.1-2.1-.3-1.4.4-1.7 3.7-1.7 3.4 0 4.1-.3 4.1-2s-.7-2-4-2c-2.9 0-4-.4-4-1.5s1.1-1.5 3.9-1.5c4.6 0 7-2.2 5.1-4.5-.9-1-3.2-1.5-7.5-1.5-6.2 0-6.3 0-6.9 3.1zM496.7 936.7c-.8 1.4 5.6 20.2 7.2 20.8 2.1.8 3.7-1.3 5.4-7l1.4-4.9 1.7 5.1c3.1 9.4 6.1 9 9-1.2 2.4-8.3 2.6-12.8.4-13.3-1.3-.2-2.1 1.1-3.6 6l-1.9 6.3-1.7-5.8c-1.5-5-2.1-5.8-3.9-5.5-1.7.2-2.7 1.7-4.3 6.1l-2 5.8-1.5-6.3c-1.2-5.1-1.8-6.4-3.6-6.6-1.1-.2-2.3 0-2.6.5zM532.1 938.2c-7.7 19.8-7.7 19.8-4.1 19.8 1 0 2.2-.9 2.5-2 .5-1.6 1.5-2 5.1-2 3 0 4.6.5 5 1.5.6 1.5 5.5 2.2 5.3.7 0-.4-2.1-5-4.7-10.2-4.9-9.9-7.4-12.1-9.1-7.8zm4.3 7.4c1 2.6.7 3.4-1.5 3.4-1.5 0-1.9-.4-1.5-1.6.3-.9.6-2 .6-2.5 0-1.5 1.7-1 2.4.7zM557.3 936.7c-.7.2-1.3 1.6-1.3 3 0 2.3.3 2.5 3 1.9l3-.6v7.4c0 5.4.4 7.7 1.5 8.6 2.5 2.1 3.4.1 3.7-8 .3-7.1.4-7.5 2.8-7.9 2.8-.3 4.1-1.8 3.3-3.8-.4-.9-2.5-1.3-7.7-1.2-3.9 0-7.7.3-8.3.6zM548.6 941.6c-.3 2.6-.6 7.1-.6 10.1 0 5.3 0 5.4 2.8 5.1l2.7-.3V947c0-8.9-.1-9.5-2.1-9.8-1.8-.3-2.2.4-2.8 4.4zM587.7 951.6c-1.3 1.3-.7 5.2.9 5.8 2.2.9 4.6-1.3 4.2-3.8-.3-2.1-3.7-3.4-5.1-2zM600.7 951.6c-2.3 2.3.7 6.9 3.7 5.8 2.5-1 1.7-5.8-.9-6.2-1.2-.2-2.4 0-2.8.4zM614.1 952.4c-1.4 1.7.1 5.6 2.2 5.6 3.3 0 5-5.3 2.1-6.4-2.3-.9-3-.8-4.3.8zM627.5 953.1c-.9 2.6 1.6 5.5 4 4.5 2.5-.9 1.6-6-1.2-6.4-1.5-.2-2.3.3-2.8 1.9z"/></svg>